<svg id="Capa_1" enable-background="new 0 0 511 511" height="512" viewBox="0 0 511 511" width="512" xmlns="http://www.w3.org/2000/svg"><g><path d="m15 207.169c0-3.047.148-6.122.442-9.138l-14.93-1.453c-.34 3.498-.512 7.062-.512 10.592 0 42.878 25.313 81.679 64.489 98.849l6.021-13.738c-33.721-14.78-55.51-48.188-55.51-85.112z"/><path d="m106.064 114.349 5.321-.081 1.681-5.049c18.762-56.355 71.18-94.219 130.434-94.219 38.98 0 76.289 16.715 102.36 45.86l3.009 3.364c6.685-1.796 13.741-3.158 20.631-3.074 17.588 0 34.238 6.751 46.887 19.011l10.439-10.771c-15.461-14.987-35.82-23.241-57.326-23.241-5.163 0-10.342.492-15.447 1.466-28.739-30.315-68.778-47.615-110.553-47.615-63.982 0-120.776 39.795-142.935 99.561-46.292 2.982-85.875 35.703-97.304 81.154l14.547 3.658c10.208-40.593 46.501-69.388 88.256-70.024z"/><path d="m451.985 127.32c-.304-16.301-5.313-31.952-14.533-45.359l-12.359 8.5c7.79 11.327 11.907 24.619 11.907 38.439 0 2.173-.24 6.445-.32 8.623l5.147 1.888c32.402 11.888 54.173 43.149 54.173 77.789 0 35.042-22.105 66.42-55.006 78.081l5.012 14.139c38.875-13.778 64.994-50.838 64.994-92.22 0-39.1-23.504-74.56-59.015-89.88z"/><path d="m332.98 251 35-26h31.903c3.396 14.315 16.278 25 31.617 25 17.921 0 32.5-14.58 32.5-32.5s-14.579-32.5-32.5-32.5c-15.339 0-28.221 10.685-31.617 25h-36.863l-35 26h-25.02v-13.206l37-34v-34.677c14.315-3.396 25-16.278 25-31.617 0-17.92-14.579-32.5-32.5-32.5s-32.5 14.58-32.5 32.5c0 15.339 10.685 28.221 25 31.617v28.089l-37 34v50.392c-9.589 1.528-18.224 5.938-25 12.309v-174.79c14.315-3.396 25-16.278 25-31.617 0-17.92-14.579-32.5-32.5-32.5-17.92 0-32.5 14.58-32.5 32.5 0 15.339 10.685 28.221 25 31.617v44.626l-49-39.812v-30.431h-15v37.57l64 52v110.836c-6.776-6.37-15.411-10.781-25-12.309v-89.702l-29.869-23.895h-21.014c-3.396-14.315-16.278-25-31.617-25-17.92 0-32.5 14.58-32.5 32.5s14.58 32.5 32.5 32.5c15.339 0 28.221-10.685 31.617-25h15.752l20.131 16.104v51.896h-27.109l-31-22h-41.774c-3.396-14.315-16.278-25-31.617-25-17.92 0-32.5 14.58-32.5 32.5s14.58 32.5 32.5 32.5c15.339 0 28.221-10.685 31.617-25h36.993l31 22h31.89v15h-90v30h-30v195h47.5v-15h-32.5v-165h15v150h130 15 130v-150h15v68.887h15v-83.887h-30v-30h-90v-15zm98.52-51c9.649 0 17.5 7.851 17.5 17.5s-7.851 17.5-17.5 17.5-17.5-7.851-17.5-17.5 7.851-17.5 17.5-17.5zm-116.5-77.5c0-9.649 7.851-17.5 17.5-17.5s17.5 7.851 17.5 17.5-7.851 17.5-17.5 17.5-17.5-7.851-17.5-17.5zm-174.5 55.5c-9.649 0-17.5-7.851-17.5-17.5s7.851-17.5 17.5-17.5 17.5 7.851 17.5 17.5-7.851 17.5-17.5 17.5zm-64 61c-9.649 0-17.5-7.851-17.5-17.5s7.851-17.5 17.5-17.5 17.5 7.851 17.5 17.5-7.851 17.5-17.5 17.5zm56.5 207v-25h82.5c15.339 0 28.221 10.685 31.617 25zm115-27.094c-8.504-7.994-19.936-12.906-32.5-12.906h-82.5v-125h82.5c17.92 0 32.5 14.58 32.5 32.5zm7.5-328.906c-9.649 0-17.5-7.851-17.5-17.5s7.851-17.5 17.5-17.5 17.5 7.851 17.5 17.5-7.851 17.5-17.5 17.5zm122.5 356h-114.117c3.396-14.315 16.278-25 31.617-25h82.5zm0-165v125h-82.5c-12.564 0-23.996 4.912-32.5 12.906v-105.406c0-17.92 14.579-32.5 32.5-32.5z"/><path d="m408 476h-127.135l-3.129 6.257c-4.238 8.477-12.758 13.743-22.236 13.743-9.477 0-17.998-5.266-22.236-13.743l-3.129-6.257h-79.635v15h70.437c7.101 12.394 20.141 20 34.563 20s27.463-7.606 34.562-20h132.938v-96.113h-15z"/><path d="m155.5 317h70v15h-70z"/><path d="m155.5 347h30v15h-30z"/><path d="m285.5 317h70v15h-70z"/><path d="m285.5 347h30v15h-30z"/><path d="m200.5 347h15v15h-15z"/><path d="m331.5 347h15v15h-15z"/><path d="m184 48.5h15v15h-15z"/></g></svg>